<mxfile host="app.diagrams.net" agent="Mozilla/5.0 (Windows NT 10.0; Win64; x64) AppleWebKit/537.36 (KHTML, like Gecko) Chrome/134.0.0.0 Safari/537.36" version="26.1.0">
  <diagram name="Page-1" id="_WHRkijlUbymSK9iW8bf">
    <mxGraphModel dx="2977" dy="870" grid="1" gridSize="10" guides="1" tooltips="1" connect="1" arrows="1" fold="1" page="1" pageScale="1" pageWidth="827" pageHeight="1169" math="0" shadow="0">
      <root>
        <mxCell id="0" />
        <mxCell id="1" parent="0" />
        <mxCell id="JvzSQyUE-LZRWF-UtXVo-18" value="&lt;b&gt;Exception&lt;/b&gt;" style="html=1;whiteSpace=wrap;" vertex="1" parent="1">
          <mxGeometry x="250" y="50" width="110" height="50" as="geometry" />
        </mxCell>
        <mxCell id="JvzSQyUE-LZRWF-UtXVo-19" value="&lt;b&gt;PolarFileError&lt;/b&gt;" style="html=1;whiteSpace=wrap;" vertex="1" parent="1">
          <mxGeometry x="-290" y="240" width="110" height="50" as="geometry" />
        </mxCell>
        <mxCell id="JvzSQyUE-LZRWF-UtXVo-20" value="&lt;b&gt;PolarFileNoMetadata&lt;/b&gt;" style="html=1;whiteSpace=wrap;" vertex="1" parent="1">
          <mxGeometry x="-300" y="310" width="130" height="50" as="geometry" />
        </mxCell>
        <mxCell id="JvzSQyUE-LZRWF-UtXVo-21" value="&lt;b&gt;Bad_Grib&lt;/b&gt;" style="html=1;whiteSpace=wrap;" vertex="1" parent="1">
          <mxGeometry x="80" y="140" width="110" height="50" as="geometry" />
        </mxCell>
        <mxCell id="JvzSQyUE-LZRWF-UtXVo-22" value="" style="endArrow=none;html=1;rounded=0;edgeStyle=orthogonalEdgeStyle;curved=1;" edge="1" parent="1">
          <mxGeometry width="50" height="50" relative="1" as="geometry">
            <mxPoint x="-340" y="360" as="sourcePoint" />
            <mxPoint x="-140" y="360" as="targetPoint" />
            <Array as="points">
              <mxPoint x="-340" y="400" />
              <mxPoint x="-140" y="400" />
            </Array>
          </mxGeometry>
        </mxCell>
        <mxCell id="JvzSQyUE-LZRWF-UtXVo-23" value="boats.py" style="text;html=1;align=center;verticalAlign=middle;whiteSpace=wrap;rounded=0;" vertex="1" parent="1">
          <mxGeometry x="-270" y="400" width="60" height="30" as="geometry" />
        </mxCell>
        <mxCell id="JvzSQyUE-LZRWF-UtXVo-24" value="&lt;b&gt;Incompatible_Extension&lt;/b&gt;" style="html=1;whiteSpace=wrap;" vertex="1" parent="1">
          <mxGeometry x="-90" y="210" width="190" height="50" as="geometry" />
        </mxCell>
        <mxCell id="JvzSQyUE-LZRWF-UtXVo-25" value="&lt;b&gt;Incompati&lt;/b&gt;&lt;span style=&quot;color: rgba(0, 0, 0, 0); font-family: monospace; font-size: 0px; text-align: start; text-wrap-mode: nowrap;&quot;&gt;%3CmxGraphModel%3E%3Croot%3E%3CmxCell%20id%3D%220%22%2F%3E%3CmxCell%20id%3D%221%22%20parent%3D%220%22%2F%3E%3CmxCell%20id%3D%222%22%20value%3D%22%26lt%3Bb%26gt%3BIncompatible_Extension%26lt%3B%2Fb%26gt%3B%22%20style%3D%22html%3D1%3BwhiteSpace%3Dwrap%3B%22%20vertex%3D%221%22%20parent%3D%221%22%3E%3CmxGeometry%20x%3D%22-40%22%20y%3D%22310%22%20width%3D%22150%22%20height%3D%2250%22%20as%3D%22geometry%22%2F%3E%3C%2FmxCell%3E%3C%2Froot%3E%3C%2FmxGraphModel%3E&lt;/span&gt;&lt;b&gt;ble_Grid_Type&lt;/b&gt;" style="html=1;whiteSpace=wrap;" vertex="1" parent="1">
          <mxGeometry x="50" y="340" width="150" height="50" as="geometry" />
        </mxCell>
        <mxCell id="JvzSQyUE-LZRWF-UtXVo-26" value="&lt;b&gt;Incompati&lt;/b&gt;&lt;span style=&quot;color: rgba(0, 0, 0, 0); font-family: monospace; font-size: 0px; text-align: start; text-wrap-mode: nowrap;&quot;&gt;%3CmxGraphModel%3E%3Croot%3E%3CmxCell%20id%3D%220%22%2F%3E%3CmxCell%20id%3D%221%22%20parent%3D%220%22%2F%3E%3CmxCell%20id%3D%222%22%20value%3D%22%26lt%3Bb%26gt%3BIncompatible_Extension%26lt%3B%2Fb%26gt%3B%22%20style%3D%22html%3D1%3BwhiteSpace%3Dwrap%3B%22%20vertex%3D%221%22%20parent%3D%221%22%3E%3CmxGeometry%20x%3D%22-40%22%20y%3D%22310%22%20width%3D%22150%22%20height%3D%2250%22%20as%3D%22geometry%22%2F%3E%3C%2FmxCell%3E%3C%2Froot%3E%3C%2FmxGraphModel%3E&lt;/span&gt;&lt;b&gt;ble_level_information&lt;/b&gt;" style="html=1;whiteSpace=wrap;" vertex="1" parent="1">
          <mxGeometry x="-90" y="280" width="190" height="50" as="geometry" />
        </mxCell>
        <mxCell id="JvzSQyUE-LZRWF-UtXVo-27" value="&lt;b&gt;Point_not_in_weather_values&lt;/b&gt;" style="html=1;whiteSpace=wrap;" vertex="1" parent="1">
          <mxGeometry x="165" y="280" width="180" height="50" as="geometry" />
        </mxCell>
        <mxCell id="JvzSQyUE-LZRWF-UtXVo-29" value="&lt;b&gt;Invalid_grib_extension&lt;/b&gt;" style="html=1;whiteSpace=wrap;" vertex="1" parent="1">
          <mxGeometry x="160" y="210" width="190" height="50" as="geometry" />
        </mxCell>
        <mxCell id="JvzSQyUE-LZRWF-UtXVo-30" value="&lt;b&gt;FileNotFoundError&lt;/b&gt;" style="html=1;whiteSpace=wrap;" vertex="1" parent="1">
          <mxGeometry x="414" y="150" width="116" height="50" as="geometry" />
        </mxCell>
        <mxCell id="JvzSQyUE-LZRWF-UtXVo-31" value="&lt;b&gt;LineNotInFile&lt;/b&gt;" style="html=1;whiteSpace=wrap;" vertex="1" parent="1">
          <mxGeometry x="414" y="250" width="116" height="50" as="geometry" />
        </mxCell>
        <mxCell id="JvzSQyUE-LZRWF-UtXVo-32" value="" style="endArrow=none;html=1;rounded=0;edgeStyle=orthogonalEdgeStyle;curved=1;" edge="1" parent="1">
          <mxGeometry width="50" height="50" relative="1" as="geometry">
            <mxPoint x="-100" y="360" as="sourcePoint" />
            <mxPoint x="550" y="360" as="targetPoint" />
            <Array as="points">
              <mxPoint x="-100" y="400" />
              <mxPoint x="550" y="400" />
            </Array>
          </mxGeometry>
        </mxCell>
        <mxCell id="JvzSQyUE-LZRWF-UtXVo-33" value="Grib_Options.py" style="text;html=1;align=center;verticalAlign=middle;whiteSpace=wrap;rounded=0;" vertex="1" parent="1">
          <mxGeometry x="210" y="410" width="60" height="30" as="geometry" />
        </mxCell>
        <mxCell id="JvzSQyUE-LZRWF-UtXVo-34" value="&lt;b&gt;NotWaterError&lt;/b&gt;" style="html=1;whiteSpace=wrap;" vertex="1" parent="1">
          <mxGeometry x="620" y="290" width="116" height="50" as="geometry" />
        </mxCell>
        <mxCell id="JvzSQyUE-LZRWF-UtXVo-35" value="&lt;b&gt;LogArrayLengthException&lt;/b&gt;" style="html=1;whiteSpace=wrap;" vertex="1" parent="1">
          <mxGeometry x="130" y="495" width="160" height="50" as="geometry" />
        </mxCell>
        <mxCell id="JvzSQyUE-LZRWF-UtXVo-36" value="&lt;b&gt;NotInRouting&lt;/b&gt;" style="html=1;whiteSpace=wrap;" vertex="1" parent="1">
          <mxGeometry x="300" y="495" width="90" height="50" as="geometry" />
        </mxCell>
        <mxCell id="JvzSQyUE-LZRWF-UtXVo-37" value="&lt;b&gt;StringSlicingFailureforPathClass&lt;/b&gt;" style="html=1;whiteSpace=wrap;" vertex="1" parent="1">
          <mxGeometry x="150" y="575" width="200" height="50" as="geometry" />
        </mxCell>
        <mxCell id="JvzSQyUE-LZRWF-UtXVo-38" value="" style="endArrow=none;html=1;rounded=0;edgeStyle=orthogonalEdgeStyle;curved=1;" edge="1" parent="1">
          <mxGeometry width="50" height="50" relative="1" as="geometry">
            <mxPoint x="602.98" y="330" as="sourcePoint" />
            <mxPoint x="752.98" y="330" as="targetPoint" />
            <Array as="points">
              <mxPoint x="602.98" y="330" />
              <mxPoint x="602.98" y="370" />
              <mxPoint x="752.98" y="370" />
            </Array>
          </mxGeometry>
        </mxCell>
        <mxCell id="JvzSQyUE-LZRWF-UtXVo-39" value="Interactive_Viewer.py" style="text;html=1;align=center;verticalAlign=middle;whiteSpace=wrap;rounded=0;" vertex="1" parent="1">
          <mxGeometry x="648" y="370" width="60" height="30" as="geometry" />
        </mxCell>
        <mxCell id="JvzSQyUE-LZRWF-UtXVo-40" value="" style="endArrow=none;html=1;rounded=0;edgeStyle=orthogonalEdgeStyle;curved=1;" edge="1" parent="1">
          <mxGeometry width="50" height="50" relative="1" as="geometry">
            <mxPoint x="120" y="610" as="sourcePoint" />
            <mxPoint x="390" y="610" as="targetPoint" />
            <Array as="points">
              <mxPoint x="120" y="650" />
              <mxPoint x="390" y="650" />
              <mxPoint x="390" y="610" />
            </Array>
          </mxGeometry>
        </mxCell>
        <mxCell id="JvzSQyUE-LZRWF-UtXVo-41" value="path.py" style="text;html=1;align=center;verticalAlign=middle;whiteSpace=wrap;rounded=0;" vertex="1" parent="1">
          <mxGeometry x="220" y="660" width="60" height="30" as="geometry" />
        </mxCell>
        <mxCell id="JvzSQyUE-LZRWF-UtXVo-42" value="&lt;b&gt;PathError&lt;/b&gt;" style="html=1;whiteSpace=wrap;" vertex="1" parent="1">
          <mxGeometry x="-300" y="470" width="110" height="50" as="geometry" />
        </mxCell>
        <mxCell id="JvzSQyUE-LZRWF-UtXVo-43" value="&lt;b&gt;OutWaterException&lt;/b&gt;" style="html=1;whiteSpace=wrap;" vertex="1" parent="1">
          <mxGeometry x="-170" y="470" width="120" height="50" as="geometry" />
        </mxCell>
        <mxCell id="JvzSQyUE-LZRWF-UtXVo-44" value="&lt;b&gt;CountinuedOutWaterException&lt;/b&gt;" style="html=1;whiteSpace=wrap;" vertex="1" parent="1">
          <mxGeometry x="-220" y="540" width="190" height="50" as="geometry" />
        </mxCell>
        <mxCell id="JvzSQyUE-LZRWF-UtXVo-46" value="" style="endArrow=none;html=1;rounded=0;edgeStyle=orthogonalEdgeStyle;curved=1;" edge="1" parent="1">
          <mxGeometry width="50" height="50" relative="1" as="geometry">
            <mxPoint x="-320" y="585" as="sourcePoint" />
            <mxPoint y="585" as="targetPoint" />
            <Array as="points">
              <mxPoint x="-320" y="625" />
              <mxPoint y="625" />
            </Array>
          </mxGeometry>
        </mxCell>
        <mxCell id="JvzSQyUE-LZRWF-UtXVo-47" value="routing_model.py" style="text;html=1;align=center;verticalAlign=middle;whiteSpace=wrap;rounded=0;" vertex="1" parent="1">
          <mxGeometry x="-180" y="630" width="60" height="30" as="geometry" />
        </mxCell>
        <mxCell id="JvzSQyUE-LZRWF-UtXVo-50" value="" style="endArrow=block;dashed=0;endFill=0;endSize=12;html=1;rounded=0;exitX=0.5;exitY=0;exitDx=0;exitDy=0;edgeStyle=orthogonalEdgeStyle;" edge="1" parent="1" source="JvzSQyUE-LZRWF-UtXVo-25">
          <mxGeometry width="160" relative="1" as="geometry">
            <mxPoint x="210" y="210" as="sourcePoint" />
            <mxPoint x="130" y="190" as="targetPoint" />
            <Array as="points">
              <mxPoint x="130" y="340" />
            </Array>
          </mxGeometry>
        </mxCell>
        <mxCell id="JvzSQyUE-LZRWF-UtXVo-52" value="" style="endArrow=none;html=1;rounded=0;" edge="1" parent="1" target="JvzSQyUE-LZRWF-UtXVo-29">
          <mxGeometry width="50" height="50" relative="1" as="geometry">
            <mxPoint x="130" y="235" as="sourcePoint" />
            <mxPoint x="300" y="320" as="targetPoint" />
          </mxGeometry>
        </mxCell>
        <mxCell id="JvzSQyUE-LZRWF-UtXVo-53" value="" style="endArrow=none;html=1;rounded=0;entryX=0;entryY=0.5;entryDx=0;entryDy=0;" edge="1" parent="1" target="JvzSQyUE-LZRWF-UtXVo-27">
          <mxGeometry width="50" height="50" relative="1" as="geometry">
            <mxPoint x="130" y="304.73" as="sourcePoint" />
            <mxPoint x="160" y="304.73" as="targetPoint" />
          </mxGeometry>
        </mxCell>
        <mxCell id="JvzSQyUE-LZRWF-UtXVo-54" value="" style="endArrow=none;html=1;rounded=0;entryX=0;entryY=0.5;entryDx=0;entryDy=0;" edge="1" parent="1">
          <mxGeometry width="50" height="50" relative="1" as="geometry">
            <mxPoint x="100" y="304.73" as="sourcePoint" />
            <mxPoint x="135" y="305" as="targetPoint" />
          </mxGeometry>
        </mxCell>
        <mxCell id="JvzSQyUE-LZRWF-UtXVo-55" value="" style="endArrow=none;html=1;rounded=0;entryX=0;entryY=0.5;entryDx=0;entryDy=0;" edge="1" parent="1">
          <mxGeometry width="50" height="50" relative="1" as="geometry">
            <mxPoint x="100" y="234.73000000000002" as="sourcePoint" />
            <mxPoint x="135" y="235" as="targetPoint" />
          </mxGeometry>
        </mxCell>
        <mxCell id="JvzSQyUE-LZRWF-UtXVo-56" value="" style="endArrow=block;dashed=0;endFill=0;endSize=12;html=1;rounded=0;exitX=0.5;exitY=0;exitDx=0;exitDy=0;edgeStyle=orthogonalEdgeStyle;entryX=0.002;entryY=0.598;entryDx=0;entryDy=0;entryPerimeter=0;" edge="1" parent="1" target="JvzSQyUE-LZRWF-UtXVo-18">
          <mxGeometry width="160" relative="1" as="geometry">
            <mxPoint x="122.5" y="139.94" as="sourcePoint" />
            <mxPoint x="127.5" y="-10.06" as="targetPoint" />
            <Array as="points">
              <mxPoint x="127" y="140" />
              <mxPoint x="127" y="80" />
            </Array>
          </mxGeometry>
        </mxCell>
        <mxCell id="JvzSQyUE-LZRWF-UtXVo-57" value="" style="endArrow=block;dashed=0;endFill=0;endSize=12;html=1;rounded=0;exitX=0.5;exitY=0;exitDx=0;exitDy=0;edgeStyle=orthogonalEdgeStyle;" edge="1" parent="1" source="JvzSQyUE-LZRWF-UtXVo-19">
          <mxGeometry width="160" relative="1" as="geometry">
            <mxPoint x="122.5" y="139.99" as="sourcePoint" />
            <mxPoint x="250" y="80" as="targetPoint" />
            <Array as="points">
              <mxPoint x="-235" y="80" />
              <mxPoint x="250" y="80" />
            </Array>
          </mxGeometry>
        </mxCell>
        <mxCell id="JvzSQyUE-LZRWF-UtXVo-58" value="" style="endArrow=block;dashed=0;endFill=0;endSize=12;html=1;rounded=0;exitX=0.5;exitY=0;exitDx=0;exitDy=0;edgeStyle=orthogonalEdgeStyle;entryX=0.469;entryY=1.029;entryDx=0;entryDy=0;entryPerimeter=0;" edge="1" parent="1" source="JvzSQyUE-LZRWF-UtXVo-20" target="JvzSQyUE-LZRWF-UtXVo-19">
          <mxGeometry width="160" relative="1" as="geometry">
            <mxPoint x="-242.52999999999997" y="430" as="sourcePoint" />
            <mxPoint x="-237.52999999999997" y="280" as="targetPoint" />
            <Array as="points">
              <mxPoint x="-238" y="310" />
            </Array>
          </mxGeometry>
        </mxCell>
        <mxCell id="JvzSQyUE-LZRWF-UtXVo-59" value="" style="endArrow=block;dashed=0;endFill=0;endSize=12;html=1;rounded=0;edgeStyle=orthogonalEdgeStyle;entryX=1;entryY=0.5;entryDx=0;entryDy=0;" edge="1" parent="1" target="JvzSQyUE-LZRWF-UtXVo-18">
          <mxGeometry width="160" relative="1" as="geometry">
            <mxPoint x="470" y="150" as="sourcePoint" />
            <mxPoint x="260" y="85.05" as="targetPoint" />
            <Array as="points">
              <mxPoint x="470" y="75" />
            </Array>
          </mxGeometry>
        </mxCell>
        <mxCell id="JvzSQyUE-LZRWF-UtXVo-63" value="" style="endArrow=block;dashed=0;endFill=0;endSize=12;html=1;rounded=0;edgeStyle=orthogonalEdgeStyle;" edge="1" parent="1">
          <mxGeometry width="160" relative="1" as="geometry">
            <mxPoint x="470" y="250" as="sourcePoint" />
            <mxPoint x="471.67" y="200" as="targetPoint" />
            <Array as="points">
              <mxPoint x="472.04" y="235" />
              <mxPoint x="472.04" y="235" />
            </Array>
          </mxGeometry>
        </mxCell>
        <mxCell id="JvzSQyUE-LZRWF-UtXVo-64" value="" style="endArrow=block;dashed=0;endFill=0;endSize=12;html=1;rounded=0;edgeStyle=orthogonalEdgeStyle;" edge="1" parent="1">
          <mxGeometry width="160" relative="1" as="geometry">
            <mxPoint x="-118" y="540" as="sourcePoint" />
            <mxPoint x="-118.32999999999998" y="520" as="targetPoint" />
            <Array as="points">
              <mxPoint x="-120" y="540" />
              <mxPoint x="-118" y="540" />
              <mxPoint x="-118" y="555" />
            </Array>
          </mxGeometry>
        </mxCell>
        <mxCell id="JvzSQyUE-LZRWF-UtXVo-67" value="" style="endArrow=none;html=1;rounded=0;entryX=0.423;entryY=0.028;entryDx=0;entryDy=0;entryPerimeter=0;" edge="1" parent="1" target="JvzSQyUE-LZRWF-UtXVo-43">
          <mxGeometry width="50" height="50" relative="1" as="geometry">
            <mxPoint x="-400" y="440" as="sourcePoint" />
            <mxPoint x="-110" y="440" as="targetPoint" />
            <Array as="points">
              <mxPoint x="-120" y="440" />
            </Array>
          </mxGeometry>
        </mxCell>
        <mxCell id="JvzSQyUE-LZRWF-UtXVo-68" value="" style="endArrow=none;html=1;rounded=0;entryX=0.551;entryY=-0.024;entryDx=0;entryDy=0;entryPerimeter=0;" edge="1" parent="1" target="JvzSQyUE-LZRWF-UtXVo-42">
          <mxGeometry width="50" height="50" relative="1" as="geometry">
            <mxPoint x="-240" y="440" as="sourcePoint" />
            <mxPoint x="175" y="315" as="targetPoint" />
          </mxGeometry>
        </mxCell>
        <mxCell id="JvzSQyUE-LZRWF-UtXVo-69" value="" style="endArrow=none;html=1;rounded=0;" edge="1" parent="1">
          <mxGeometry width="50" height="50" relative="1" as="geometry">
            <mxPoint x="-400" y="440" as="sourcePoint" />
            <mxPoint x="-400" y="80" as="targetPoint" />
          </mxGeometry>
        </mxCell>
        <mxCell id="JvzSQyUE-LZRWF-UtXVo-70" value="" style="endArrow=none;html=1;rounded=0;" edge="1" parent="1">
          <mxGeometry width="50" height="50" relative="1" as="geometry">
            <mxPoint x="-230" y="80" as="sourcePoint" />
            <mxPoint x="-400" y="80" as="targetPoint" />
          </mxGeometry>
        </mxCell>
        <mxCell id="JvzSQyUE-LZRWF-UtXVo-71" value="" style="endArrow=block;dashed=0;endFill=0;endSize=12;html=1;rounded=0;edgeStyle=orthogonalEdgeStyle;entryX=1;entryY=0.5;entryDx=0;entryDy=0;exitX=0.5;exitY=0;exitDx=0;exitDy=0;" edge="1" parent="1" source="JvzSQyUE-LZRWF-UtXVo-34">
          <mxGeometry width="160" relative="1" as="geometry">
            <mxPoint x="470" y="150" as="sourcePoint" />
            <mxPoint x="360" y="75" as="targetPoint" />
            <Array as="points">
              <mxPoint x="678" y="75" />
            </Array>
          </mxGeometry>
        </mxCell>
        <mxCell id="JvzSQyUE-LZRWF-UtXVo-72" value="" style="endArrow=none;html=1;rounded=0;" edge="1" parent="1">
          <mxGeometry width="50" height="50" relative="1" as="geometry">
            <mxPoint x="560" y="80" as="sourcePoint" />
            <mxPoint x="560" y="450" as="targetPoint" />
          </mxGeometry>
        </mxCell>
        <mxCell id="JvzSQyUE-LZRWF-UtXVo-73" value="" style="endArrow=none;html=1;rounded=0;" edge="1" parent="1">
          <mxGeometry width="50" height="50" relative="1" as="geometry">
            <mxPoint x="210" y="450" as="sourcePoint" />
            <mxPoint x="560" y="450" as="targetPoint" />
          </mxGeometry>
        </mxCell>
        <mxCell id="JvzSQyUE-LZRWF-UtXVo-74" value="" style="endArrow=none;html=1;rounded=0;exitX=0.5;exitY=0;exitDx=0;exitDy=0;" edge="1" parent="1" source="JvzSQyUE-LZRWF-UtXVo-35">
          <mxGeometry width="50" height="50" relative="1" as="geometry">
            <mxPoint x="140" y="314.73" as="sourcePoint" />
            <mxPoint x="210" y="450" as="targetPoint" />
          </mxGeometry>
        </mxCell>
        <mxCell id="JvzSQyUE-LZRWF-UtXVo-76" value="" style="endArrow=none;html=1;rounded=0;exitX=0.5;exitY=0;exitDx=0;exitDy=0;" edge="1" parent="1">
          <mxGeometry width="50" height="50" relative="1" as="geometry">
            <mxPoint x="345" y="495" as="sourcePoint" />
            <mxPoint x="345" y="450" as="targetPoint" />
          </mxGeometry>
        </mxCell>
        <mxCell id="JvzSQyUE-LZRWF-UtXVo-77" value="" style="endArrow=none;html=1;rounded=0;" edge="1" parent="1">
          <mxGeometry width="50" height="50" relative="1" as="geometry">
            <mxPoint x="410" y="560" as="sourcePoint" />
            <mxPoint x="410" y="450" as="targetPoint" />
          </mxGeometry>
        </mxCell>
        <mxCell id="JvzSQyUE-LZRWF-UtXVo-78" value="" style="endArrow=none;html=1;rounded=0;" edge="1" parent="1">
          <mxGeometry width="50" height="50" relative="1" as="geometry">
            <mxPoint x="410" y="560" as="sourcePoint" />
            <mxPoint x="240" y="560" as="targetPoint" />
          </mxGeometry>
        </mxCell>
        <mxCell id="JvzSQyUE-LZRWF-UtXVo-79" value="" style="endArrow=none;html=1;rounded=0;exitX=0.448;exitY=0.019;exitDx=0;exitDy=0;exitPerimeter=0;" edge="1" parent="1" source="JvzSQyUE-LZRWF-UtXVo-37">
          <mxGeometry width="50" height="50" relative="1" as="geometry">
            <mxPoint x="220" y="505" as="sourcePoint" />
            <mxPoint x="240" y="560" as="targetPoint" />
          </mxGeometry>
        </mxCell>
      </root>
    </mxGraphModel>
  </diagram>
</mxfile>
